<svg width="1000" height="600" xmlns="http://www.w3.org/2000/svg"><defs><linearGradient id="a" gradientTransform="rotate(90)"><stop offset="5%" stop-color="#b54b00"/><stop offset="95%" stop-color="#c7783f"/></linearGradient><linearGradient id="b" gradientTransform="rotate(90)"><stop offset="5%" stop-color="#af4900"/><stop offset="95%" stop-color="#c3763f"/></linearGradient><linearGradient id="c" gradientTransform="rotate(90)"><stop offset="5%" stop-color="#af4900"/><stop offset="95%" stop-color="#c3763f"/></linearGradient><linearGradient id="d" gradientTransform="rotate(90)"><stop offset="5%" stop-color="#b14a00"/><stop offset="95%" stop-color="#c4773f"/></linearGradient><linearGradient id="e" gradientTransform="rotate(90)"><stop offset="5%" stop-color="#b84c00"/><stop offset="95%" stop-color="#c9783f"/></linearGradient><linearGradient id="f" gradientTransform="rotate(90)"><stop offset="5%" stop-color="#b94c00"/><stop offset="95%" stop-color="#ca783f"/></linearGradient><linearGradient id="g" gradientTransform="rotate(90)"><stop offset="5%" stop-color="#b24a00"/><stop offset="95%" stop-color="#c5773f"/></linearGradient><linearGradient id="h" gradientTransform="rotate(90)"><stop offset="5%" stop-color="#b34a00"/><stop offset="95%" stop-color="#c6773f"/></linearGradient><linearGradient id="i" gradientTransform="rotate(90)"><stop offset="5%" stop-color="#ba4c00"/><stop offset="95%" stop-color="#cb783f"/></linearGradient><linearGradient id="j" gradientTransform="rotate(90)"><stop offset="5%" stop-color="#b74b00"/><stop offset="95%" stop-color="#c9783f"/></linearGradient><linearGradient id="k" gradientTransform="rotate(90)"><stop offset="5%" stop-color="#b04900"/><stop offset="95%" stop-color="#c3763f"/></linearGradient><linearGradient id="l" gradientTransform="rotate(90)"><stop offset="5%" stop-color="#b54b00"/><stop offset="95%" stop-color="#c7783f"/></linearGradient><linearGradient id="m" gradientTransform="rotate(90)"><stop offset="5%" stop-color="#bc4d00"/><stop offset="95%" stop-color="#cc793f"/></linearGradient></defs><path fill="#bc4d00" d="M0 0h1000v600H0z"/><path d="M0 42c57.23 2.765 114.46 5.53 170 4 55.54-1.53 109.388-7.353 164-7 54.612.353 109.987 6.882 167 8 57.013 1.118 115.663-3.175 172-6s110.36-4.184 169-4c58.64.184 121.897 1.91 149 3 27.103 1.09 18.051 1.545 49 2l-40 558H0Z" fill="url(#a)"/><path d="M0 85c60.352 1.138 120.704 2.277 174 2 53.296-.277 99.534-1.97 155-3 55.466-1.03 120.158-1.4 175-1 54.842.4 99.834 1.571 152 1s111.506-2.885 179-4c67.494-1.115 143.141-1.033 172 0 28.859 1.033 10.93 3.016 33 5l-40 515H0Z" fill="url(#b)"/><path d="M0 128c59.43 1.213 118.86 2.427 176 3s111.989.507 165 1c53.011.493 104.185 1.547 158 1 53.815-.547 110.27-2.693 163-4 52.73-1.307 101.735-1.775 167-1 65.265.775 146.79 2.793 178 3 31.21.207 12.105-1.396 33-3l-40 472H0Z" fill="url(#c)"/><path d="M0 171c59.289.352 118.577.705 173 1 54.423.295 103.98.533 157-1 53.02-1.533 109.506-4.836 165-5 55.494-.164 109.999 2.812 164 5 54.001 2.188 107.5 3.59 169 3 61.5-.59 131-3.168 161-4 30-.832 20.5.084 51 1l-40 429H0Z" fill="url(#d)"/><path d="M0 214c52.16.11 104.32.221 162-1 57.68-1.221 120.881-3.774 177-3s105.156 4.876 159 7c53.844 2.124 112.494 2.27 169 1s110.867-3.957 173-4c62.133-.043 132.038 2.56 160 3 27.962.44 13.981-1.28 40-3l-40 386H0Z" fill="url(#e)"/><path d="M0 257c61.246-1.051 122.492-2.102 176-3 53.508-.898 99.277-1.642 155-1 55.723.642 121.398 2.67 177 4 55.602 1.33 101.13 1.965 154 2 52.87.035 113.08-.529 175 0s125.548 2.151 153 2c27.452-.151 18.726-2.076 50-4l-40 343H0Z" fill="url(#f)"/><path d="M0 299c50.966 2.3 101.932 4.602 161 5 59.068.398 126.24-1.106 181-3 54.76-1.894 97.11-4.176 149-5 51.89-.824 113.321-.19 173 0s117.606-.064 179 0c61.394.064 126.255.447 153 1 26.745.553 15.372 1.277 44 2l-40 301H0Z" fill="url(#g)"/><path d="M0 342c52.714-2.052 105.427-4.103 161-4 55.573.103 114.005 2.36 171 4 56.995 1.64 112.554 2.66 166 3 53.446.34 104.78-.002 159-2s111.329-5.653 174-5c62.671.653 130.906 5.615 160 7 29.094 1.385 19.047-.808 49-3l-40 258H0Z" fill="url(#h)"/><path d="M0 385c56.45.72 112.9 1.441 168 0 55.1-1.441 108.851-5.045 167-5 58.149.045 120.694 3.739 175 6s100.37 3.09 150 1c49.63-2.09 102.823-7.101 168-7 65.177.101 142.336 5.315 173 7 30.664 1.685 14.832-.157 39-2l-40 215H0Z" fill="url(#i)"/><path d="M0 428c57.025 1.89 114.05 3.782 168 3s104.826-4.235 160-6c55.174-1.765 114.646-1.84 172 0s112.59 5.596 166 5c53.41-.596 104.995-5.545 167-6 62.005-.455 134.43 3.584 164 5 29.57 1.416 16.285.208 43-1l-40 172H0Z" fill="url(#j)"/><path d="M0 471c57.36 2.44 114.719 4.88 168 5 53.281.12 102.484-2.078 156-2 53.516.078 111.345 2.432 169 1s115.134-6.652 167-7c51.866-.348 98.118 4.176 164 6 65.882 1.824 151.395.95 184 0 32.605-.95 12.303-1.975 32-3l-40 129H0Z" fill="url(#k)"/><path d="M0 514c51.099 2.926 102.198 5.852 160 5 57.802-.852 122.307-5.483 181-7 58.693-1.517 111.575.08 167 2s113.392 4.164 168 5c54.608.836 105.856.263 166-1 60.144-1.263 129.184-3.218 157-4 27.816-.782 14.408-.39 41 0l-40 86H0Z" fill="url(#l)"/><path d="M0 557c55.525 1.742 111.05 3.485 168 2 56.95-1.485 115.325-6.196 168-6 52.675.196 99.65 5.301 155 6 55.35.699 119.073-3.009 175-5 55.927-1.991 104.057-2.267 168-2 63.943.267 143.698 1.076 174 2 30.302.924 11.151 1.962 32 3l-40 43H0Z" fill="url(#m)"/><path d="M0 599c59.795-1.503 119.59-3.005 176-2s109.435 4.518 162 4c52.565-.518 104.67-5.067 160-6 55.33-.933 113.882 1.75 171 4 57.118 2.25 112.801 4.067 172 3 59.199-1.067 121.914-5.02 149-6 27.086-.98 18.543 1.01 50 3l-40 1H0Z" fill="url(#gradient_14)"/></svg>